# xmcd
# Track frame offsets:
# 150
# 11672
# 23830
# 34977
# 48140
# 60207
# 72012
# 85355
# 96397
# 106152
# 116407
#
# Disc length: 1695 seconds
# Revision: 0
# Processed by: cddbd v1.5.2PL0 Copyright (c) Steve Scherf et al.
# Submitted via: VisiTrax 2.9.5.180 - For more info visit www.synapsa.com
#
DISCID=81069d0b
DTITLE=Henson Cargill - Skip a rope
DYEAR=1992
DGENRE=Country
TTITLE0=It's over
TTITLE1=By the time I get to Phoenix
TTITLE2=A very well traveled man
TTITLE3=Distant drums
TTITLE4=Skip a rope
TTITLE5=Saginaw, Michigan
TTITLE6=Green green grass of home
TTITLE7=Just as much as ever
TTITLE8=Black Jack county chain
TTITLE9=Four long seasons
TTITLE10=Little girls and little boys
EXTD=
EXTT0=
EXTT1=
EXTT2=
EXTT3=
EXTT4=
EXTT5=
EXTT6=
EXTT7=
EXTT8=
EXTT9=
EXTT10=
PLAYORDER=
